
        <svg xmlns="http://www.w3.org/2000/svg" xmlns:xlink="http://www.w3.org/1999/xlink" version="1.1" width="3187.5" 
        height="801.6467844502309" viewBox="0 0 3187.5 801.6467844502309">
			<rect fill="#fcfcfc" width="3187.5" height="801.6467844502309"/>
			<g transform="scale(9.375) translate(10, 10)">
				<defs id="SvgjsDefs2033"></defs><g id="SvgjsG2034" featureKey="symbolFeature-0" transform="matrix(1.1235955056179776,0,0,1.1235955056179776,-6.179775280898877,-23.42584374245633)" fill="#304b32"><path xmlns="http://www.w3.org/2000/svg" d="M7,47c-0.829,0-1.5,0.671-1.5,1.5v3C5.5,52.329,6.171,53,7,53s1.5-0.671,1.5-1.5v-3C8.5,47.671,7.829,47,7,47z"></path><path xmlns="http://www.w3.org/2000/svg" d="M12.733,41.603c-0.829,0-1.5,0.671-1.5,1.5v13.795c0,0.829,0.671,1.5,1.5,1.5s1.5-0.671,1.5-1.5V43.103  C14.233,42.274,13.562,41.603,12.733,41.603z"></path><path xmlns="http://www.w3.org/2000/svg" d="M18.467,44.667c-0.829,0-1.5,0.671-1.5,1.5v7.667c0,0.829,0.671,1.5,1.5,1.5s1.5-0.671,1.5-1.5v-7.667  C19.967,45.338,19.295,44.667,18.467,44.667z"></path><path xmlns="http://www.w3.org/2000/svg" d="M24.2,36.375c-0.829,0-1.5,0.671-1.5,1.5v24.25c0,0.829,0.671,1.5,1.5,1.5s1.5-0.671,1.5-1.5v-24.25  C25.7,37.046,25.029,36.375,24.2,36.375z"></path><path xmlns="http://www.w3.org/2000/svg" d="M29.933,28.833c-0.829,0-1.5,0.671-1.5,1.5v39.333c0,0.829,0.671,1.5,1.5,1.5s1.5-0.671,1.5-1.5V30.333  C31.433,29.505,30.762,28.833,29.933,28.833z"></path><path xmlns="http://www.w3.org/2000/svg" d="M35.667,37.333c-0.829,0-1.5,0.671-1.5,1.5v22.333c0,0.829,0.671,1.5,1.5,1.5s1.5-0.671,1.5-1.5V38.833  C37.167,38.005,36.495,37.333,35.667,37.333z"></path><path xmlns="http://www.w3.org/2000/svg" d="M41.534,29.835c-0.87-0.024-1.505,0.662-1.51,1.49l-0.249,37.331c-0.005,0.828,0.662,1.504,1.49,1.51  c0.003,0,0.006,0,0.01,0c0.824,0,1.495-0.665,1.5-1.49l0.249-37.331C43.03,30.517,42.363,29.84,41.534,29.835z"></path><path xmlns="http://www.w3.org/2000/svg" d="M47.133,20.849c-0.829,0-1.5,0.671-1.5,1.5v55.303c0,0.829,0.671,1.5,1.5,1.5s1.5-0.671,1.5-1.5V22.349  C48.633,21.52,47.962,20.849,47.133,20.849z"></path><path xmlns="http://www.w3.org/2000/svg" d="M52.867,27.25c-0.829,0-1.5,0.671-1.5,1.5v42.5c0,0.829,0.671,1.5,1.5,1.5s1.5-0.671,1.5-1.5v-42.5  C54.367,27.921,53.695,27.25,52.867,27.25z"></path><path xmlns="http://www.w3.org/2000/svg" d="M58.6,37.333c-0.829,0-1.5,0.671-1.5,1.5v22.333c0,0.829,0.671,1.5,1.5,1.5s1.5-0.671,1.5-1.5V38.833  C60.1,38.005,59.429,37.333,58.6,37.333z"></path><path xmlns="http://www.w3.org/2000/svg" d="M64.333,31c-0.829,0-1.5,0.671-1.5,1.5v35c0,0.829,0.671,1.5,1.5,1.5s1.5-0.671,1.5-1.5v-35  C65.833,31.671,65.162,31,64.333,31z"></path><path xmlns="http://www.w3.org/2000/svg" d="M70.067,39.632c-0.829,0-1.5,0.671-1.5,1.5v17.735c0,0.829,0.671,1.5,1.5,1.5s1.5-0.671,1.5-1.5V41.132  C71.567,40.304,70.896,39.632,70.067,39.632z"></path><path xmlns="http://www.w3.org/2000/svg" d="M75.8,43.5c-0.829,0-1.5,0.671-1.5,1.5v10c0,0.829,0.671,1.5,1.5,1.5s1.5-0.671,1.5-1.5V45  C77.3,44.171,76.628,43.5,75.8,43.5z"></path><path xmlns="http://www.w3.org/2000/svg" d="M81.533,41.735c-0.829,0-1.5,0.671-1.5,1.5v13.53c0,0.829,0.671,1.5,1.5,1.5s1.5-0.671,1.5-1.5v-13.53  C83.033,42.406,82.362,41.735,81.533,41.735z"></path><path xmlns="http://www.w3.org/2000/svg" d="M87.267,45.99c-0.829,0-1.5,0.671-1.5,1.5v5.021c0,0.829,0.671,1.5,1.5,1.5s1.5-0.671,1.5-1.5V47.49  C88.767,46.661,88.095,45.99,87.267,45.99z"></path><path xmlns="http://www.w3.org/2000/svg" d="M93,47.417c-0.829,0-1.5,0.671-1.5,1.5v2.167c0,0.829,0.671,1.5,1.5,1.5s1.5-0.671,1.5-1.5v-2.167  C94.5,48.088,93.829,47.417,93,47.417z"></path></g><g id="SvgjsG2035" featureKey="nameFeature-0" transform="matrix(1.6763086729457475,0,0,1.6763086729457475,120.67052412862246,-9.634769605395004)" fill="#304b32"><path d="M5.16 39.52 l-1.64 1 c-0.2 0.12 -0.32 0.12 -0.48 0.08 l-0.56 -0.2 c-0.16 -0.04 -0.2 -0.12 -0.16 -0.32 c0.12 -0.56 0.12 -3.88 0.12 -6.88 l0 -14.92 c0 -2.68 -0.52 -3.16 -1.76 -3.52 l-0.56 -0.16 c-0.44 -0.12 -0.52 -0.2 -0.52 -0.32 l0 -0.48 c0 -0.12 0.08 -0.28 0.44 -0.4 c2 -0.56 4.52 -1.56 6.08 -2.28 c0.68 -0.36 1 -0.6 1.4 -0.6 s0.48 0.28 0.48 0.68 c0 0.32 -0.28 4.88 -0.32 8.8 l-0.08 4.56 c1.44 -1.44 3.36 -1.92 5.36 -1.92 c2.6 0 4.64 1.72 5.68 3.4 c0.68 1.08 1.16 2.56 1.16 5.16 c0 4.2 -4 9.36 -9.16 9.36 c-2.64 0 -4.16 -0.48 -5.48 -1.04 z M7.64 26.240000000000002 l0 5.24 c0 3.32 -0.04 4.8 0.48 5.84 c0.56 1.04 1.24 1.72 2.32 1.72 c1.16 0 2.56 -0.4 3.32 -2.08 c0.84 -1.84 0.64 -2.84 0.64 -4.44 c0 -5.28 -2.2 -7.04 -4.28 -7.04 c-0.72 0 -1.68 0.24 -2.48 0.76 z M36.56 30.04 l-9.16 0 l0 1.08 c0 4.16 2.36 6.2 5.28 6.2 c1.96 0 3.56 -0.92 4.36 -2.2 c0.08 -0.2 0.24 -0.24 0.4 -0.12 l0.68 0.36 c0.16 0.08 0.28 0.28 -0.08 0.96 c-0.72 1.48 -3.32 4.24 -7.08 4.24 c-2.56 0 -4.68 -0.44 -6 -1.88 c-2.04 -2.2 -2.72 -3.76 -2.76 -6.88 c0 -1.12 0 -3.24 1.8 -5.88 c1.44 -2.12 3.88 -3.28 6.96 -3.28 c6.48 0 6.84 6.2 6.84 6.84 c0 0.52 -0.36 0.56 -1.24 0.56 z M27.44 28.52 l3.84 0 c0.88 0 1.28 -0.2 1.28 -0.8 c0 -1.76 -0.72 -3.48 -1.96 -3.48 c-1.88 0 -2.88 1.48 -3.16 4.28 z M47.44 24.52 l0 7.48 c0 1.6 0 4.2 0.12 5.36 c0.04 0.68 0.16 1.24 1 1.24 l1.36 0 c0.36 0 0.44 0.12 0.44 0.36 l0 0.76 c0 0.24 -0.08 0.4 -0.24 0.4 c-0.28 0 -2.04 -0.12 -5.2 -0.12 c-3.36 0 -4.96 0.12 -5.32 0.12 c-0.2 0 -0.28 -0.16 -0.28 -0.48 l0 -0.68 c0 -0.28 0.08 -0.36 0.52 -0.36 l1.2 0 c0.44 0 1.08 -0.28 1.08 -1.72 l0 -12.72 c0 -2.84 0 -6.08 -0.08 -7.12 c-0.08 -1.36 -0.92 -1.92 -2.2 -2.32 l-0.72 -0.24 c-0.28 -0.12 -0.32 -0.24 -0.32 -0.44 l0 -0.6 c0 -0.12 0.08 -0.28 0.36 -0.32 c1.8 -0.36 5.96 -1.72 7.12 -2.32 c0.44 -0.2 0.68 -0.28 0.88 -0.28 c0.24 0 0.4 0.2 0.36 0.72 c-0.04 2.2 -0.08 10.52 -0.08 13.28 z M59 31 l0 3.16 c0 3.28 1.24 4 2.2 4 c0.84 0 1.44 -0.12 2.08 -0.48 c0.12 -0.08 0.24 -0.08 0.36 0.16 l0.28 0.6 c0.12 0.2 0 0.4 -0.16 0.52 c-0.68 0.48 -2.48 1.6 -5.6 1.6 c-2.72 0 -4.44 -1.88 -4.44 -3.72 c0 -1.4 0.08 -4.44 0.08 -5.96 l0.04 -5.28 l-2.2 0 c-0.36 0 -0.64 -0.16 -0.64 -0.56 s0.24 -0.68 0.88 -1 c1.32 -0.6 4.68 -3.6 6.16 -5.28 c0.28 -0.32 0.56 -0.4 0.76 -0.4 c0.36 0 0.52 0.28 0.52 0.6 l-0.16 4.24 l5.08 0 c0.24 0 0.36 0.2 0.28 0.36 l-0.4 1.72 c-0.04 0.16 -0.12 0.32 -0.36 0.32 l-4.68 0 c-0.08 1.64 -0.08 3.56 -0.08 5.4 z M71.84 38.56 l3.6 0 c1.12 0 3.12 -0.68 6.08 -4.12 c0.24 -0.28 0.4 -0.28 0.52 -0.2 l0.52 0.4 c0.16 0.12 0.2 0.2 0.08 0.4 l-2.68 5.44 c-0.64 -0.24 -2.6 -0.36 -4.6 -0.4 c-2 -0.08 -4.04 -0.08 -4.88 -0.08 l-4.68 0 c-0.44 0 -0.64 -0.28 -0.16 -1.04 l9.28 -14.36 l-2.8 0 c-2.12 0 -3.08 0.36 -6.28 4.36 c-0.16 0.2 -0.32 0.16 -0.48 0.04 l-0.48 -0.32 c-0.12 -0.08 -0.16 -0.2 -0.08 -0.4 l2.24 -5.76 c0.88 0.2 1.64 0.36 2.32 0.44 c1.48 0.2 2.2 0.24 5.44 0.24 l6.2 0 c0.4 0 0.6 0.4 0.36 0.8 z M98 30.04 l-9.16 0 l0 1.08 c0 4.16 2.36 6.2 5.28 6.2 c1.96 0 3.56 -0.92 4.36 -2.2 c0.08 -0.2 0.24 -0.24 0.4 -0.12 l0.68 0.36 c0.16 0.08 0.28 0.28 -0.08 0.96 c-0.72 1.48 -3.32 4.24 -7.08 4.24 c-2.56 0 -4.68 -0.44 -6 -1.88 c-2.04 -2.2 -2.72 -3.76 -2.76 -6.88 c0 -1.12 0 -3.24 1.8 -5.88 c1.44 -2.12 3.88 -3.28 6.96 -3.28 c6.48 0 6.84 6.2 6.84 6.84 c0 0.52 -0.36 0.56 -1.24 0.56 z M88.88 28.52 l3.84 0 c0.88 0 1.28 -0.2 1.28 -0.8 c0 -1.76 -0.72 -3.48 -1.96 -3.48 c-1.88 0 -2.88 1.48 -3.16 4.28 z M108.03999999999999 38.56 l3.6 0 c1.12 0 3.12 -0.68 6.08 -4.12 c0.24 -0.28 0.4 -0.28 0.52 -0.2 l0.52 0.4 c0.16 0.12 0.2 0.2 0.08 0.4 l-2.68 5.44 c-0.64 -0.24 -2.6 -0.36 -4.6 -0.4 c-2 -0.08 -4.04 -0.08 -4.88 -0.08 l-4.68 0 c-0.44 0 -0.64 -0.28 -0.16 -1.04 l9.28 -14.36 l-2.8 0 c-2.12 0 -3.08 0.36 -6.28 4.36 c-0.16 0.2 -0.32 0.16 -0.48 0.04 l-0.48 -0.32 c-0.12 -0.08 -0.16 -0.2 -0.08 -0.4 l2.24 -5.76 c0.88 0.2 1.64 0.36 2.32 0.44 c1.48 0.2 2.2 0.24 5.44 0.24 l6.2 0 c0.4 0 0.6 0.4 0.36 0.8 z"></path></g>
			</g>
		</svg>
	